<svg width="60" height="42" viewBox="0 0 60 42" fill="none" xmlns="http://www.w3.org/2000/svg">
<path d="M5.78714 30.0964L0 30.0661L0.136008 3.04672L12.7349 3.11121C13.9536 3.11766 15.0566 3.32981 16.0438 3.74768C17.0311 4.16554 17.872 4.7572 18.5665 5.52264C19.2597 6.28743 19.7943 7.20001 20.1703 8.26036C20.5463 9.32071 20.7311 10.4959 20.7245 11.7858C20.7152 13.6189 20.3074 15.2169 19.5011 16.5799C18.6948 17.9429 17.4783 18.9301 15.8517 19.5414L21.0124 30.1757L14.5798 30.1434L9.98658 20.2079L5.83818 20.1863L5.78714 30.0964ZM11.9522 15.2628C12.8145 15.2673 13.4943 15.0451 13.9917 14.596C14.489 14.147 14.7397 13.484 14.7437 12.607L14.7522 10.9036C14.7567 10.0266 14.5128 9.36102 14.0205 8.90682C13.5283 8.45263 12.8507 8.22328 11.9877 8.21877L5.89747 8.18652L5.86196 15.2312L11.9522 15.2628Z" fill="url(#paint0_linear)"/>
<path d="M52.9129 1.03184C53.6698 0.337981 54.6668 -0.00594099 55.9038 7.76359e-05C57.1409 0.00609626 58.1343 0.360121 58.884 1.06215C59.6334 1.76311 60.0054 2.6472 59.9999 3.71443C59.9946 4.75458 59.6142 5.62126 58.8586 6.31448C58.103 7.0077 57.106 7.35108 55.8677 7.34463C54.63 7.33818 53.6366 6.98448 52.8876 6.28353C52.1385 5.58257 51.7662 4.71202 51.7707 3.67187C51.7764 2.60485 52.1571 1.72484 52.9129 1.03184ZM58.6757 10.4754L58.5774 30.2114L52.9817 30.1824L53.0813 10.4467L58.6757 10.4754Z" fill="url(#paint1_linear)"/>
<path d="M46.8797 10.7411C46.3302 8.9963 45.551 7.53463 44.5422 6.35606C43.5334 5.17748 42.3076 4.28705 40.8646 3.68475C39.4215 3.08439 37.8243 2.77938 36.073 2.76971C34.3217 2.76003 32.7211 3.04796 31.2712 3.63349C29.8215 4.22052 28.5865 5.09816 27.566 6.26642C26.5456 7.43468 25.7514 8.8885 25.1835 10.6279C24.6164 12.3671 24.3274 14.3851 24.3164 16.6821C24.3054 18.9791 24.5743 20.9996 25.123 22.7437C25.6725 24.4885 26.452 25.9501 27.4614 27.1287C28.4708 28.3073 29.6967 29.1978 31.139 29.8003C32.5828 30.4007 34.1799 30.7057 35.9303 30.7154C37.6808 30.7251 39.281 30.4367 40.7309 29.8503C42.1536 29.2833 43.4237 28.3809 44.4367 27.2174C45.4575 26.0489 46.2514 24.595 46.8182 22.8556C47.3851 21.1162 47.6746 19.0982 47.6869 16.8017C47.6985 14.5062 47.4295 12.486 46.8797 10.7411ZM42.7158 16.3974L41.5602 16.3919L41.5482 18.7846C41.5372 20.9531 41.0405 22.6152 40.0581 23.771C39.0757 24.9267 37.7088 25.5002 35.9573 25.4914C34.2066 25.4824 32.8456 24.8947 31.8742 23.7284C30.9028 22.5621 30.4231 20.8949 30.4352 18.7269L30.4472 16.3361L29.6569 16.3329L29.6584 16.3297L29.2923 16.3274L28.4157 5.76634L32.8012 10.4331L35.5372 5.30204C35.5372 5.30204 36.0251 4.50339 36.5907 5.30753C36.662 5.4581 37.9349 7.90789 39.2662 10.4663L43.6973 5.84662L42.7158 16.3974Z" fill="url(#paint2_linear)"/>
<path d="M0 33.2864H3.17383C3.72864 33.2864 4.23589 33.3765 4.69559 33.5566C5.1417 33.7282 5.54219 34.0035 5.86513 34.3604C6.18682 34.7164 6.43632 35.1623 6.61365 35.6982C6.79098 36.2341 6.87943 36.8574 6.87901 37.5683C6.87901 38.2802 6.79055 38.9035 6.61365 39.4383C6.43674 39.9731 6.18724 40.42 5.86513 40.779C5.54208 41.136 5.14133 41.4112 4.69496 41.5825C4.23632 41.7626 3.72906 41.8527 3.17319 41.8527H0V33.2864ZM3.17383 40.196C3.72082 40.196 4.15114 40.0405 4.46479 39.7295C4.77844 39.4184 4.93538 38.9194 4.93559 38.2325V36.907C4.93559 36.2191 4.77866 35.72 4.46479 35.4096C4.15093 35.0992 3.72061 34.9438 3.17383 34.9434H1.83436V40.196H3.17383Z" fill="url(#paint3_linear)"/>
<path d="M10.1487 33.2864V38.5391C10.1487 39.1446 10.2649 39.5966 10.4974 39.8952C10.7299 40.1938 11.1201 40.3431 11.6679 40.3431C12.2151 40.3431 12.6054 40.1938 12.8387 39.8952C13.072 39.5966 13.1883 39.1446 13.1874 38.5391V33.2864H14.9736V38.3431C14.9736 38.9726 14.9153 39.5187 14.7986 39.9813C14.6819 40.4439 14.4909 40.8242 14.2254 41.1224C13.9597 41.4212 13.6179 41.6421 13.1998 41.7853C12.7817 41.9284 12.2708 42 11.6669 42C11.0635 42 10.5528 41.9284 10.1347 41.7853C9.71666 41.6421 9.37468 41.4212 9.1088 41.1224C8.84312 40.8242 8.65206 40.4439 8.5356 39.9813C8.41914 39.5187 8.36081 38.9726 8.3606 38.3431V33.2864H10.1487Z" fill="url(#paint4_linear)"/>
<path d="M19.6329 41.8527V33.2864H23.6148C24.0088 33.2864 24.3628 33.3539 24.6769 33.4889C24.9798 33.6167 25.2532 33.8072 25.4796 34.0483C25.7078 34.2973 25.8824 34.5919 25.9923 34.9134C26.2336 35.6355 26.2336 36.4186 25.9923 37.1407C25.8814 37.4599 25.7069 37.7523 25.4796 37.9997C25.253 38.2405 24.9796 38.4308 24.6769 38.5584C24.3634 38.6932 24.0094 38.7606 23.6148 38.7606H21.4672V41.8533L19.6329 41.8527ZM21.4672 37.1401H23.397C23.6703 37.1401 23.8855 37.0685 24.0425 36.9253C24.1995 36.7822 24.278 36.5715 24.2777 36.2934V35.7533C24.2777 35.475 24.1993 35.2643 24.0425 35.1214C23.8857 34.9784 23.6705 34.9068 23.397 34.9066H21.4663L21.4672 37.1401Z" fill="url(#paint5_linear)"/>
<path d="M29.3831 41.8526H27.5504V33.2864H31.545C31.9041 33.2814 32.2608 33.3481 32.5947 33.4827C32.899 33.6073 33.173 33.7978 33.3974 34.0412C33.6239 34.2915 33.7983 34.5859 33.9101 34.9066C34.0346 35.2651 34.0959 35.6432 34.0911 36.0234C34.0911 36.6038 33.9643 37.111 33.7106 37.545C33.457 37.979 33.073 38.294 32.5585 38.49L34.2116 41.8526H32.1721L30.7001 38.7109H29.3831V41.8526ZM31.3139 37.14C31.5872 37.14 31.8023 37.0684 31.9593 36.9253C32.1164 36.7821 32.1949 36.5715 32.1949 36.2933V35.7532C32.1949 35.4749 32.1164 35.2642 31.9593 35.1213C31.8023 34.9783 31.5872 34.9068 31.3139 34.9066H29.3831V37.14H31.3139Z" fill="url(#paint6_linear)"/>
<path d="M38.9402 42C38.3854 42 37.8781 41.906 37.4184 41.7179C36.9683 41.5358 36.5671 41.2476 36.2479 40.877C35.9258 40.5049 35.6763 40.0428 35.4994 39.4905C35.3225 38.9383 35.2341 38.2981 35.2341 37.5699C35.2341 36.8418 35.3225 36.2016 35.4994 35.6492C35.6763 35.0967 35.9258 34.6346 36.2479 34.2627C36.5671 33.8921 36.9683 33.6039 37.4184 33.4218C37.8769 33.234 38.3841 33.1399 38.9402 33.1397C39.4963 33.1395 40.0035 33.2335 40.462 33.4218C40.9121 33.604 41.3134 33.8922 41.6328 34.2627C41.9542 34.6348 42.2035 35.0969 42.3807 35.6492C42.5578 36.2014 42.6463 36.8416 42.6463 37.5699C42.6463 38.2981 42.5578 38.9383 42.3807 39.4905C42.2035 40.0428 41.9542 40.5049 41.6328 40.877C41.3134 41.2475 40.9121 41.5357 40.462 41.7179C40.0027 41.906 39.4954 42 38.9402 42ZM38.9402 40.343C39.4954 40.343 39.9279 40.1589 40.2375 39.7907C40.5471 39.4225 40.702 38.8948 40.702 38.2076V36.9314C40.702 36.2436 40.5471 35.7159 40.2375 35.3483C39.9279 34.9808 39.4954 34.7967 38.9402 34.796C38.3854 34.796 37.9531 34.9801 37.6432 35.3483C37.3334 35.7165 37.1784 36.2443 37.1784 36.9314V38.2076C37.1784 38.8955 37.3334 39.4232 37.6432 39.7907C37.9531 40.1583 38.3854 40.3424 38.9402 40.343Z" fill="url(#paint7_linear)"/>
<path d="M46.7474 37.803L45.939 36.0848H45.9029V41.8527H44.1772V33.2864H46.1803L48.4854 37.3371L49.2939 39.0553H49.3306V33.2871H51.0563V41.8533H49.0529L46.7474 37.803Z" fill="url(#paint8_linear)"/>
<path d="M56.2925 42C55.7375 42 55.2302 41.906 54.7707 41.7179C54.3206 41.5358 53.9194 41.2476 53.6002 40.877C53.2783 40.5049 53.0289 40.0428 52.852 39.4905C52.6751 38.9383 52.5867 38.2981 52.5867 37.5699C52.5867 36.8418 52.6751 36.2016 52.852 35.6492C53.0289 35.0967 53.2783 34.6346 53.6002 34.2627C53.9194 33.8921 54.3206 33.6039 54.7707 33.4218C55.2294 33.234 55.7366 33.1399 56.2925 33.1397C56.8483 33.1395 57.3556 33.2335 57.8142 33.4218C58.2643 33.604 58.6655 33.8922 58.9847 34.2627C59.3066 34.6348 59.556 35.0969 59.7329 35.6492C59.9098 36.2014 59.9984 36.8416 59.9986 37.5699C59.9986 38.2981 59.9101 38.9383 59.7329 39.4905C59.5558 40.0428 59.3064 40.5049 58.9847 40.877C58.6655 41.2475 58.2643 41.5357 57.8142 41.7179C57.355 41.906 56.8477 42 56.2925 42ZM56.2925 40.343C56.8475 40.343 57.2799 40.1589 57.5898 39.7907C57.8996 39.4225 58.0545 38.8948 58.0542 38.2076V36.9314C58.0542 36.2436 57.8994 35.7159 57.5898 35.3483C57.2801 34.9808 56.8477 34.7967 56.2925 34.796C55.7375 34.796 55.305 34.9801 54.9952 35.3483C54.6853 35.7165 54.5305 36.2443 54.5307 36.9314V38.2076C54.5307 38.8955 54.6855 39.4232 54.9952 39.7907C55.3048 40.1583 55.7372 40.3424 56.2925 40.343Z" fill="url(#paint9_linear)"/>
<defs>
<linearGradient id="paint0_linear" x1="21.0124" y1="16.6548" x2="-0.357917" y2="15.5711" gradientUnits="userSpaceOnUse">
<stop stop-color="#EB472D"/>
<stop offset="0.885417" stop-color="#EF8032"/>
</linearGradient>
<linearGradient id="paint1_linear" x1="60" y1="15.1543" x2="51.6116" y2="15.0047" gradientUnits="userSpaceOnUse">
<stop stop-color="#EB472D"/>
<stop offset="0.885417" stop-color="#EF8032"/>
</linearGradient>
<linearGradient id="paint2_linear" x1="47.6873" y1="16.7875" x2="23.9281" y2="15.4865" gradientUnits="userSpaceOnUse">
<stop stop-color="#EB472D"/>
<stop offset="0.885417" stop-color="#EF8032"/>
</linearGradient>
<linearGradient id="paint3_linear" x1="6.87901" y1="37.5833" x2="-0.11583" y2="37.2155" gradientUnits="userSpaceOnUse">
<stop stop-color="#EB472D"/>
<stop offset="0.885417" stop-color="#EF8032"/>
</linearGradient>
<linearGradient id="paint4_linear" x1="14.9736" y1="37.6572" x2="8.24726" y2="37.323" gradientUnits="userSpaceOnUse">
<stop stop-color="#EB472D"/>
<stop offset="0.885417" stop-color="#EF8032"/>
</linearGradient>
<linearGradient id="paint5_linear" x1="26.1733" y1="37.5836" x2="19.521" y2="37.2511" gradientUnits="userSpaceOnUse">
<stop stop-color="#EB472D"/>
<stop offset="0.885417" stop-color="#EF8032"/>
</linearGradient>
<linearGradient id="paint6_linear" x1="34.2116" y1="37.5831" x2="27.437" y2="37.2382" gradientUnits="userSpaceOnUse">
<stop stop-color="#EB472D"/>
<stop offset="0.885417" stop-color="#EF8032"/>
</linearGradient>
<linearGradient id="paint7_linear" x1="42.6463" y1="37.5841" x2="35.111" y2="37.1714" gradientUnits="userSpaceOnUse">
<stop stop-color="#EB472D"/>
<stop offset="0.885417" stop-color="#EF8032"/>
</linearGradient>
<linearGradient id="paint8_linear" x1="51.0563" y1="37.5836" x2="44.0614" y2="37.2159" gradientUnits="userSpaceOnUse">
<stop stop-color="#EB472D"/>
<stop offset="0.885417" stop-color="#EF8032"/>
</linearGradient>
<linearGradient id="paint9_linear" x1="59.9986" y1="37.5841" x2="52.4636" y2="37.1714" gradientUnits="userSpaceOnUse">
<stop stop-color="#EB472D"/>
<stop offset="0.885417" stop-color="#EF8032"/>
</linearGradient>
</defs>
</svg>
