<?xml version="1.0" standalone="no"?>
<!DOCTYPE svg PUBLIC "-//W3C//DTD SVG 1.0//EN" "http://www.w3.org/TR/2001/REC-SVG-20010904/DTD/svg10.dtd">
<svg xmlns="http://www.w3.org/2000/svg" xmlns:xlink="http://www.w3.org/1999/xlink" id="body_1" width="100" height="100">

<g transform="matrix(3.333333 0 0 3.333333 0 0)">
    <path transform="matrix(1 0 0 1 0 0)"  d="M15 29.1667C 7.17601 29.1667 0.833374 22.824 0.833374 15C 0.833374 7.17596 7.17601 0.833332 15 0.833332C 22.8241 0.833332 29.1667 7.17596 29.1667 15C 29.1581 22.8205 22.8205 29.1581 15 29.1667zM3.66671 15.2437C 3.73374 21.4788 8.82494 26.4885 15.0603 26.4552C 21.2957 26.4215 26.3327 21.3573 26.3327 15.1218C 26.3327 8.88638 21.2957 3.82218 15.0603 3.7885C 8.82494 3.75515 3.73374 8.76491 3.66671 15L3.66671 15L3.66671 15.2437zM16.4167 22.0833L13.5834 22.0833L13.5834 16.4167L7.91671 16.4167L7.91671 13.5833L13.5834 13.5833L13.5834 7.91667L16.4167 7.91667L16.4167 13.5833L22.0834 13.5833L22.0834 16.4167L16.4167 16.4167L16.4167 22.0833z" stroke="none" fill="#2F4858" fill-rule="nonzero" />
</g>
</svg>