<svg width="100" height="100" viewBox="0 0 100 100" fill="none" xmlns="http://www.w3.org/2000/svg">
<path d="M15 29.1667C7.17601 29.1667 0.833374 22.824 0.833374 15C0.833374 7.17596 7.17601 0.833332 15 0.833332C22.8241 0.833332 29.1667 7.17596 29.1667 15C29.1581 22.8205 22.8205 29.1581 15 29.1667ZM3.66671 15.2437C3.73374 21.4788 8.82494 26.4885 15.0603 26.4552C21.2957 26.4215 26.3327 21.3573 26.3327 15.1218C26.3327 8.88638 21.2957 3.82218 15.0603 3.7885C8.82494 3.75515 3.73374 8.76491 3.66671 15V15.2437ZM16.4167 22.0833H13.5834V16.4167H7.91671V13.5833H13.5834V7.91667H16.4167V13.5833H22.0834V16.4167H16.4167V22.0833Z" fill="#2F4858"/>
</svg>
